<svg width="12" height="20" viewBox="0 0 12 20" fill="none" xmlns="http://www.w3.org/2000/svg">
<path fill-rule="evenodd" clip-rule="evenodd" d="M1.10723 1.35723C1.57607 0.888392 2.21196 0.625 2.875 0.625H9.125C9.78804 0.625 10.4239 0.888392 10.8928 1.35723C11.3616 1.82607 11.625 2.46196 11.625 3.125V16.875C11.625 17.538 11.3616 18.1739 10.8928 18.6428C10.4239 19.1116 9.78804 19.375 9.125 19.375H2.875C2.21196 19.375 1.57607 19.1116 1.10723 18.6428C0.638392 18.1739 0.375 17.538 0.375 16.875V3.125C0.375 2.46196 0.638392 1.82607 1.10723 1.35723ZM2.875 1.875C2.54348 1.875 2.22554 2.0067 1.99112 2.24112C1.7567 2.47554 1.625 2.79348 1.625 3.125V16.875C1.625 17.2065 1.7567 17.5245 1.99112 17.7589C2.22554 17.9933 2.54348 18.125 2.875 18.125H9.125C9.45652 18.125 9.77446 17.9933 10.0089 17.7589C10.2433 17.5245 10.375 17.2065 10.375 16.875V3.125C10.375 2.79348 10.2433 2.47554 10.0089 2.24112C9.77446 2.0067 9.45652 1.875 9.125 1.875H7.875V2.5C7.875 2.84518 7.59518 3.125 7.25 3.125H4.75C4.40482 3.125 4.125 2.84518 4.125 2.5V1.875H2.875ZM4.125 16.875C4.125 16.5298 4.40482 16.25 4.75 16.25H7.25C7.59518 16.25 7.875 16.5298 7.875 16.875C7.875 17.2202 7.59518 17.5 7.25 17.5H4.75C4.40482 17.5 4.125 17.2202 4.125 16.875Z" fill="#0D0D0D"/>
</svg>
